<svg width="62" height="15" viewBox="0 0 62 15" fill="none" xmlns="http://www.w3.org/2000/svg">
<path d="M1 6.5C0.447715 6.5 0 6.94772 0 7.5C0 8.05228 0.447715 8.5 1 8.5L1 6.5ZM61.7071 8.20711C62.0976 7.81658 62.0976 7.18342 61.7071 6.79289L55.3432 0.428932C54.9526 0.0384078 54.3195 0.0384078 53.9289 0.428932C53.5384 0.819457 53.5384 1.45262 53.9289 1.84315L59.5858 7.5L53.9289 13.1569C53.5384 13.5474 53.5384 14.1805 53.9289 14.5711C54.3195 14.9616 54.9526 14.9616 55.3432 14.5711L61.7071 8.20711ZM1 8.5L61 8.5V6.5L1 6.5L1 8.5Z" fill="white"/>
</svg>
