<svg width="18" height="28" viewBox="0 0 18 28" fill="none" xmlns="http://www.w3.org/2000/svg">
<path d="M17.8891 9.55553C17.8922 8.11648 17.5459 6.69819 16.88 5.42251C16.214 4.14683 15.2483 3.05191 14.0658 2.23183C12.8833 1.41175 11.5193 0.891034 10.0912 0.714418C8.66298 0.537803 7.21329 0.710572 5.86662 1.21788C4.51996 1.72519 3.3166 2.55186 2.35993 3.62688C1.40327 4.7019 0.72191 5.99311 0.3744 7.38957C0.0268903 8.78603 0.0236203 10.246 0.364871 11.644C0.706123 13.042 1.38169 14.3362 2.33353 15.4155V24.5555C2.33352 25.0788 2.48132 25.5914 2.7599 26.0344C3.03848 26.4774 3.43651 26.8326 3.90815 27.0593C4.3798 27.2859 4.90587 27.3747 5.42578 27.3155C5.94569 27.2563 6.4383 27.0514 6.84686 26.7244L8.65353 25.28C8.75197 25.2014 8.87422 25.1585 9.0002 25.1585C9.12618 25.1585 9.24842 25.2014 9.34686 25.28L11.1535 26.7244C11.5621 27.0514 12.0547 27.2563 12.5746 27.3155C13.0945 27.3747 13.6206 27.2859 14.0922 27.0593C14.5639 26.8326 14.9619 26.4774 15.2405 26.0344C15.5191 25.5914 15.6669 25.0788 15.6669 24.5555V15.4155C17.0983 13.7991 17.8888 11.7147 17.8891 9.55553ZM9.0002 2.88886C10.3187 2.88886 11.6077 3.27986 12.704 4.0124C13.8003 4.74494 14.6548 5.78613 15.1594 7.00431C15.664 8.22248 15.796 9.56293 15.5388 10.8561C15.2815 12.1493 14.6466 13.3372 13.7142 14.2696C12.7819 15.2019 11.594 15.8369 10.3008 16.0941C9.00759 16.3513 7.66715 16.2193 6.44897 15.7147C5.2308 15.2101 4.18961 14.3557 3.45707 13.2593C2.72452 12.163 2.33353 10.8741 2.33353 9.55553C2.33529 7.78796 3.03824 6.0933 4.2881 4.84344C5.53796 3.59358 7.23263 2.89063 9.0002 2.88886ZM13.1302 25.0533C13.0362 25.0999 12.9307 25.1184 12.8265 25.1066C12.7222 25.0947 12.6236 25.0531 12.5424 24.9866L10.7358 23.5422C10.244 23.1461 9.63161 22.9301 9.0002 22.9301C8.36878 22.9301 7.75637 23.1461 7.26464 23.5422L5.45908 24.9866C5.37756 25.0521 5.27922 25.0932 5.17537 25.1053C5.07152 25.1173 4.96637 25.0998 4.87202 25.0548C4.77767 25.0098 4.69794 24.939 4.64199 24.8507C4.58604 24.7624 4.55615 24.6601 4.55575 24.5555V17.2422C5.90461 18.0295 7.43839 18.4444 9.0002 18.4444C10.562 18.4444 12.0958 18.0295 13.4446 17.2422V24.5555C13.4459 24.66 13.4168 24.7626 13.361 24.8509C13.3052 24.9393 13.2251 25.0096 13.1302 25.0533Z" fill="black"/>
</svg>
