<svg width="32" height="32" viewBox="0 0 32 32" fill="none" xmlns="http://www.w3.org/2000/svg">
<mask id="mask0_1830_21109" style="mask-type:alpha" maskUnits="userSpaceOnUse" x="4" y="2" width="24" height="28">
<path fill-rule="evenodd" clip-rule="evenodd" d="M16.3964 29.5423C18.4728 28.5063 28 23.2644 28 14.3042C28 7.67678 22.6274 2.3042 16 2.3042C9.37258 2.3042 4 7.67678 4 14.3042C4 23.2644 13.5272 28.5063 15.6036 29.5423C15.8585 29.6695 16.1415 29.6695 16.3964 29.5423ZM16 19.4471C18.8403 19.4471 21.1429 17.1445 21.1429 14.3042C21.1429 11.4639 18.8403 9.16134 16 9.16134C13.1597 9.16134 10.8571 11.4639 10.8571 14.3042C10.8571 17.1445 13.1597 19.4471 16 19.4471Z" fill="#09101D"/>
</mask>
<g mask="url(#mask0_1830_21109)">
<rect width="32" height="32" fill="#565656"/>
</g>
</svg>
