<svg width="18" height="20" viewBox="0 0 18 20" fill="none" xmlns="http://www.w3.org/2000/svg">
<path fill-rule="evenodd" clip-rule="evenodd" d="M18 4C18 6.20914 16.2091 8 14 8C11.7909 8 10 6.20914 10 4C10 1.79086 11.7909 0 14 0C16.2091 0 18 1.79086 18 4ZM14 6.5C15.3807 6.5 16.5 5.38071 16.5 4C16.5 2.61929 15.3807 1.5 14 1.5C12.6193 1.5 11.5 2.61929 11.5 4C11.5 5.38071 12.6193 6.5 14 6.5Z" fill="#09101D"/>
<path fill-rule="evenodd" clip-rule="evenodd" d="M18 16C18 18.2091 16.2091 20 14 20C11.7909 20 10 18.2091 10 16C10 13.7909 11.7909 12 14 12C16.2091 12 18 13.7909 18 16ZM14 18.5C15.3807 18.5 16.5 17.3807 16.5 16C16.5 14.6193 15.3807 13.5 14 13.5C12.6193 13.5 11.5 14.6193 11.5 16C11.5 17.3807 12.6193 18.5 14 18.5Z" fill="#09101D"/>
<path fill-rule="evenodd" clip-rule="evenodd" d="M6.9833 12.6646L10.244 14.6211C10.4196 14.1431 10.6838 13.7078 11.0167 13.3354L7.75596 11.3789C7.91382 10.9491 8 10.4846 8 10C8 9.51539 7.91382 9.05092 7.75596 8.62106L11.0167 6.66463C10.6838 6.29215 10.4196 5.85695 10.244 5.37894L6.98329 7.33537C6.25081 6.51585 5.18565 6 4 6C1.79086 6 0 7.79086 0 10C0 12.2091 1.79086 14 4 14C5.18565 14 6.25081 13.4841 6.9833 12.6646ZM6.5 10C6.5 11.3807 5.38071 12.5 4 12.5C2.61929 12.5 1.5 11.3807 1.5 10C1.5 8.61929 2.61929 7.5 4 7.5C5.38071 7.5 6.5 8.61929 6.5 10Z" fill="#09101D"/>
</svg>
