<svg width="24" height="24" viewBox="0 0 24 24" fill="none" xmlns="http://www.w3.org/2000/svg">
<g clip-path="url(#clip0_1983_29923)">
<path fill-rule="evenodd" clip-rule="evenodd" d="M22 6C22 6.55228 21.5523 7 21 7L3 7C2.44772 7 2 6.55228 2 6C2 5.44771 2.44772 5 3 5L21 5C21.5523 5 22 5.44772 22 6Z" fill="white"/>
<path fill-rule="evenodd" clip-rule="evenodd" d="M19 12C19 12.5523 18.5523 13 18 13L6 13C5.44771 13 5 12.5523 5 12C5 11.4477 5.44771 11 6 11L18 11C18.5523 11 19 11.4477 19 12Z" fill="white"/>
<path fill-rule="evenodd" clip-rule="evenodd" d="M16 18C16 18.5523 15.5523 19 15 19L9 19C8.44772 19 8 18.5523 8 18C8 17.4477 8.44772 17 9 17L15 17C15.5523 17 16 17.4477 16 18Z" fill="white"/>
</g>
<defs>
<clipPath id="clip0_1983_29923">
<rect width="24" height="24" fill="white"/>
</clipPath>
</defs>
</svg>
