<svg width="32" height="32" viewBox="0 0 32 32" fill="none" xmlns="http://www.w3.org/2000/svg">
<mask id="mask0_1830_21181" style="mask-type:alpha" maskUnits="userSpaceOnUse" x="2" y="4" width="28" height="25">
<mask id="mask1_1830_21181" style="mask-type:alpha" maskUnits="userSpaceOnUse" x="2" y="4" width="28" height="25">
<path fill-rule="evenodd" clip-rule="evenodd" d="M2.66675 4.00073H29.3334V28.2221H2.66675V4.00073Z" fill="white"/>
</mask>
<g mask="url(#mask1_1830_21181)">
<path fill-rule="evenodd" clip-rule="evenodd" d="M4.66675 19.9727V22.6994C4.66675 23.6407 5.03208 24.5247 5.69741 25.1901C6.36275 25.8554 7.24808 26.2221 8.18808 26.2221H23.8094C25.7507 26.2221 27.3321 24.6434 27.3334 22.7021V19.9714C25.6187 19.5274 24.3481 17.9661 24.3467 16.1141C24.3467 14.2621 25.6174 12.7007 27.3321 12.2554L27.3334 9.52873C27.3347 7.58473 25.7574 6.00207 23.8147 6.00073H8.19208C6.24941 6.00073 4.66808 7.58073 4.66675 9.5234V12.3461C5.31475 12.5007 5.91608 12.8194 6.41608 13.2861C7.17475 13.9941 7.61208 14.9541 7.64941 15.9914C7.65341 17.9461 6.38275 19.5247 4.66675 19.9727ZM23.8094 28.2221H8.18941C6.71342 28.2221 5.32675 27.6487 4.28275 26.6047C3.24008 25.5607 2.66675 24.1741 2.66675 22.6994V19.0994C2.66675 18.5474 3.11475 18.0994 3.66675 18.0994C4.76541 18.0981 5.65341 17.2074 5.65208 16.1141C5.63341 15.5567 5.42008 15.0927 5.05208 14.7487C4.68541 14.4047 4.21075 14.2167 3.70141 14.2447C3.42541 14.2474 3.16675 14.1527 2.97208 13.9647C2.77741 13.7767 2.66675 13.5154 2.66675 13.2447V9.52473C2.66808 6.47807 5.14675 4.00073 8.19208 4.00073H23.8081C26.8614 4.00207 29.3361 6.48473 29.3334 9.53007V13.1287C29.3334 13.6807 28.8854 14.1287 28.3334 14.1287C27.2387 14.1287 26.3467 15.0194 26.3467 16.1127C26.3481 17.2087 27.2387 18.0994 28.3334 18.0994C28.8854 18.0994 29.3334 18.5474 29.3334 19.0994V22.6994C29.3321 25.7447 26.8534 28.2221 23.8094 28.2221Z" fill="black"/>
</g>
<path fill-rule="evenodd" clip-rule="evenodd" d="M13.4721 15.1751L14.1508 15.8364C14.5188 16.1978 14.6854 16.7124 14.5974 17.2151L14.4374 18.1458L15.2761 17.7044C15.7281 17.4631 16.2708 17.4644 16.7268 17.7071L17.5601 18.1444L17.4001 17.2124C17.3161 16.7018 17.4841 16.1911 17.8481 15.8364L18.5268 15.1751L17.5868 15.0391C17.0828 14.9658 16.6454 14.6484 16.4201 14.1884L16.0001 13.3391L15.5801 14.1898C15.3548 14.6484 14.9174 14.9658 14.4108 15.0391L13.4721 15.1751ZM18.1573 20.5166C17.9093 20.5166 17.6613 20.4566 17.432 20.3353L16 19.5846L14.5667 20.3366C14.0387 20.6126 13.4107 20.5686 12.9307 20.2193C12.4493 19.8686 12.2133 19.2873 12.3133 18.7006L12.5867 17.1059L11.428 15.9766C11.0027 15.5619 10.8507 14.9526 11.0333 14.3873C11.2173 13.8206 11.6973 13.4139 12.2853 13.3286L13.8907 13.0939L14.6067 11.6419C14.8693 11.1086 15.4027 10.7766 16 10.7766C16.5947 10.7766 17.1293 11.1086 17.392 11.6433L18.1093 13.0939L19.712 13.3286C20.3013 13.4139 20.7827 13.8206 20.9653 14.3873C21.148 14.9526 20.9973 15.5619 20.5707 15.9779L19.4107 17.1073L19.6853 18.7006C19.7853 19.2886 19.548 19.8713 19.0653 20.2206C18.7933 20.4166 18.476 20.5166 18.1573 20.5166Z" fill="black"/>
</mask>
<g mask="url(#mask0_1830_21181)">
<rect width="32" height="32" fill="#242424"/>
</g>
</svg>
