<svg width="28" height="28" viewBox="0 0 28 28" fill="none" xmlns="http://www.w3.org/2000/svg">
<path fill-rule="evenodd" clip-rule="evenodd" d="M13.9998 27.3334C6.63984 27.3334 0.666504 21.3734 0.666504 14.0001C0.666504 6.64008 6.63984 0.666748 13.9998 0.666748C21.3732 0.666748 27.3332 6.64008 27.3332 14.0001C27.3332 21.3734 21.3732 27.3334 13.9998 27.3334ZM18.2532 18.9467C18.4132 19.0401 18.5865 19.0934 18.7732 19.0934C19.1065 19.0934 19.4398 18.9201 19.6265 18.6001C19.9065 18.1334 19.7598 17.5201 19.2798 17.2267L14.5332 14.4001V8.24008C14.5332 7.68008 14.0798 7.24008 13.5332 7.24008C12.9865 7.24008 12.5332 7.68008 12.5332 8.24008V14.9734C12.5332 15.3201 12.7198 15.6401 13.0265 15.8267L18.2532 18.9467Z" fill="#130F26"/>
</svg>
