<?xml version="1.0" standalone="no"?>
<!DOCTYPE svg PUBLIC "-//W3C//DTD SVG 20010904//EN"
 "http://www.w3.org/TR/2001/REC-SVG-20010904/DTD/svg10.dtd">
<svg version="1.0" xmlns="http://www.w3.org/2000/svg"
 width="152.000000pt" height="57.000000pt" viewBox="0 0 152.000000 57.000000"
 preserveAspectRatio="xMidYMid meet">

<g transform="translate(0.000000,57.000000) scale(0.100000,-0.100000)"
fill="#000000" stroke="none">
<path d="M180 476 c-31 -16 -55 -40 -78 -77 -31 -50 -33 -60 -30 -121 5 -88
39 -141 118 -181 46 -24 63 -28 108 -23 107 10 189 90 199 194 l5 47 -114
-112 c-62 -62 -118 -113 -123 -113 -14 0 -165 153 -165 166 0 7 7 17 15 24 11
9 12 16 4 26 -15 18 17 85 37 77 10 -3 12 0 8 10 -7 19 51 63 62 46 5 -8 9 -7
15 3 5 9 26 15 54 16 37 2 45 -1 45 -15 0 -14 2 -15 9 -4 7 11 13 10 35 -4 15
-10 25 -23 23 -29 -5 -14 -33 -15 -30 -1 1 6 -6 11 -15 12 -9 1 -34 3 -54 6
-43 5 -103 -19 -134 -54 -38 -43 -34 -59 31 -121 l60 -56 103 97 c56 54 102
102 102 108 0 14 -61 69 -97 87 -49 24 -139 21 -193 -8z"/>
<path d="M545 408 c18 -39 25 -70 25 -118 0 -48 -7 -79 -25 -117 l-24 -53 479
0 c467 0 481 1 500 20 18 18 20 33 20 140 0 127 -9 165 -44 174 -11 3 -231 6
-488 6 l-467 0 24 -52z m230 -35 c4 -31 9 -62 12 -70 3 -7 -1 -13 -10 -13 -8
0 -17 6 -20 13 -3 9 -8 9 -21 -2 -15 -13 -19 -13 -27 0 -6 10 -9 10 -9 2 0 -8
-13 -13 -29 -13 -24 0 -29 5 -33 30 -8 55 2 90 26 90 29 0 46 -18 47 -49 1
-22 2 -21 9 8 5 19 6 40 3 48 -3 9 3 13 20 13 23 0 25 -5 32 -57z m250 40 c0
-6 3 -15 8 -19 4 -4 7 -2 7 4 0 20 40 14 41 -5 1 -17 2 -17 6 0 5 18 33 24 33
7 0 -6 7 -6 19 1 36 23 52 5 49 -53 -3 -47 -6 -53 -27 -56 -13 -2 -28 2 -32
10 -7 10 -9 10 -9 1 0 -22 -30 -14 -40 10 l-9 22 0 -22 c-1 -19 -6 -21 -48
-20 -47 2 -48 3 -51 36 -2 19 -1 50 3 68 5 28 10 34 28 31 12 -2 22 -8 22 -15z
m334 10 c-1 -5 2 -28 7 -53 l9 -45 5 40 c5 37 8 40 35 40 30 0 30 -1 30 -55
l0 -55 -45 -1 c-25 -1 -48 3 -52 10 -6 8 -10 8 -15 0 -5 -6 -29 -12 -55 -13
l-48 -1 0 60 c0 56 2 60 23 60 34 0 46 -13 45 -48 -2 -48 8 -49 16 0 4 23 12
48 18 55 11 14 29 18 27 6z m-438 -43 l7 -25 1 28 c1 17 7 27 16 27 12 0 15
-13 15 -60 0 -47 -3 -60 -15 -60 -9 0 -15 10 -16 28 -1 27 -1 27 -8 3 -13 -47
-31 -36 -31 19 0 67 -24 64 -28 -4 -4 -62 -26 -56 -30 7 -2 26 -7 47 -13 47
-5 0 -9 5 -9 11 0 6 20 9 52 7 46 -3 53 -6 59 -28z m529 -120 c0 -7 -142 -10
-405 -10 -263 0 -405 3 -405 10 0 7 142 10 405 10 263 0 405 -3 405 -10z
m-702 -45 c16 -34 15 -38 -6 -62 -14 -17 -19 -18 -30 -7 -15 16 -16 49 -2 75
14 26 25 24 38 -6z m148 8 c28 -37 7 -91 -30 -77 -18 7 -21 46 -6 75 13 24 19
24 36 2z m467 -25 c3 -8 6 -6 6 5 2 33 21 17 21 -18 0 -37 -8 -43 -28 -23 -9
9 -12 9 -12 0 0 -28 -20 -9 -21 21 -2 29 -2 29 -6 5 -9 -55 -56 -59 -66 -5 -4
19 -4 18 -6 -4 -1 -32 -25 -44 -46 -23 -8 9 -15 11 -15 5 0 -6 -4 -11 -10 -11
-5 0 -10 7 -10 15 0 21 -28 19 -33 -2 -3 -10 -5 -3 -6 15 -1 41 -23 39 -32 -4
l-7 -29 -1 27 c0 15 -9 32 -18 37 -14 8 -9 10 25 11 31 0 42 -4 42 -15 0 -8 7
-15 15 -15 8 0 15 7 15 15 0 8 9 15 20 15 16 0 20 -7 20 -30 0 -16 5 -30 10
-30 6 0 10 13 10 29 0 28 2 30 48 33 51 3 77 -4 85 -24z m-675 -15 c3 -30 1
-33 -22 -33 -23 0 -26 4 -26 36 0 31 3 35 23 32 17 -2 23 -11 25 -35z m152 21
c0 -13 -3 -14 -15 -4 -12 10 -16 9 -21 -5 -9 -23 14 -45 26 -25 8 13 10 13 10
-1 0 -24 -27 -31 -45 -13 -18 18 -18 20 -5 45 13 23 50 26 50 3z m123 -2 c3
15 5 9 6 -14 1 -42 -13 -51 -25 -15 l-8 22 -7 -25 c-6 -21 -7 -18 -8 15 l0 40
19 -23 19 -22 4 22z m75 -18 c2 -22 -2 -33 -14 -38 -22 -8 -44 11 -44 39 0 28
9 37 35 33 14 -2 21 -12 23 -34z m415 9 c6 -33 -12 -57 -36 -47 -17 6 -24 54
-10 67 16 17 41 6 46 -20z"/>
<path d="M660 370 c0 -5 5 -10 10 -10 6 0 10 5 10 10 0 6 -4 10 -10 10 -5 0
-10 -4 -10 -10z"/>
<path d="M660 330 c0 -5 5 -10 10 -10 6 0 10 5 10 10 0 6 -4 10 -10 10 -5 0
-10 -4 -10 -10z"/>
<path d="M1003 350 c0 -25 2 -35 4 -22 2 12 2 32 0 45 -2 12 -4 2 -4 -23z"/>
<path d="M1150 349 c0 -23 3 -39 6 -36 11 10 13 67 3 73 -5 3 -9 -14 -9 -37z"/>
<path d="M1413 350 c0 -25 2 -35 4 -22 2 12 2 32 0 45 -2 12 -4 2 -4 -23z"/>
<path d="M1261 324 c0 -11 3 -14 6 -6 3 7 2 16 -1 19 -3 4 -6 -2 -5 -13z"/>
<path d="M714 196 c-6 -17 2 -36 17 -36 12 0 12 37 -1 45 -6 3 -13 -1 -16 -9z"/>
<path d="M866 194 c-7 -18 0 -34 15 -34 12 0 12 37 0 44 -5 3 -12 -1 -15 -10z"/>
<path d="M1287 203 c-10 -9 -9 -43 2 -43 5 0 11 6 14 13 6 17 -7 40 -16 30z"/>
<path d="M1000 185 c0 -14 4 -25 10 -25 5 0 7 7 4 15 -4 8 -1 15 6 15 6 0 8 5
5 10 -11 18 -25 10 -25 -15z"/>
<path d="M1414 197 c-6 -17 2 -37 15 -37 9 0 8 37 -2 46 -4 4 -9 0 -13 -9z"/>
</g>
</svg>
